#N canvas 267 116 958 982 12;
#X obj 103 155 oscparse;
#X msg 103 92 listen 5005;
#X obj 103 126 netreceive -u -b;
#X obj 103 186 list trim;
#X floatatom 478 255 5 0 0 0 - - - 0;
#X floatatom 390 255 5 0 0 0 - - - 0;
#X floatatom 103 253 5 0 0 0 - - - 0;
#X floatatom 244 253 5 0 0 0 - - - 0;
#X obj 103 53 loadbang;
#X text 241 75 listens for the x \, y \, z \, velocity \, and body data;
#X msg 511 155 0;
#X obj 103 228 route x_impulse;
#X obj 244 228 route y_impulse;
#X obj 390 230 route push;
#X obj 478 230 route hold;
#X msg 62 213 0;
#X msg 272 162 0;
#X msg 439 169 0;
#X connect 0 0 3 0;
#X connect 1 0 2 0;
#X connect 2 0 0 0;
#X connect 3 0 11 0;
#X connect 3 0 12 0;
#X connect 3 0 13 0;
#X connect 3 0 14 0;
#X connect 8 0 1 0;
#X connect 8 0 15 0;
#X connect 8 0 16 0;
#X connect 8 0 17 0;
#X connect 8 0 10 0;
#X connect 10 0 4 0;
#X connect 11 0 6 0;
#X connect 12 0 7 0;
#X connect 13 0 5 0;
#X connect 14 0 4 0;
#X connect 15 0 6 0;
#X connect 16 0 7 0;
#X connect 17 0 5 0;
